# xmcd
#
# Track frame offsets:
#	150
#	14341
#	36986
#	60242
#	80883
#	99329
#	118684
#	135340
#	153420
#	176525
#	196631
#	213436
#
# Disc length: 3045
#
# Revision: 1
# Processed by: cddbd v1.5.1PL0 Copyright (c) Steve Scherf et al.
# Submitted via: audiograbber 1.82.02
# Normalized: r0:TDELIM( - )
#
DISCID=950be30c
DTITLE=SoundTrack - Machos - SoundTrack Machos
DYEAR=2003
DGENRE=Soundtrack
TTITLE0=Victor Flores - Machos
TTITLE1=Miguel Bose - El Hijo Del Capitan Trueno
TTITLE2=Bacilos - Viejo
TTITLE3=No Te Va A Gustar - Te Voy A Llevar
TTITLE4=Mambru - A Veces
TTITLE5=Franco De Vitta - Como Decirte Que No
TTITLE6=Carlos Ponce - Jabon
TTITLE7=Donato Poveda - Bohemio Enamorado
TTITLE8=Tropiflaite - Te Vas A Acordar De Mi
TTITLE9=Ricardo Montaner - Si Tuviera Que Elegir
TTITLE10=Claudio Baglioni - A Modo Mio
TTITLE11=Yerko Trivino - Bugle Buddy
EXTD=
EXTT0=
EXTT1=
EXTT2=
EXTT3=
EXTT4=
EXTT5=
EXTT6=
EXTT7=
EXTT8=
EXTT9=
EXTT10=
EXTT11=
PLAYORDER=
